# xmcd
#
# Track frame offsets:
#	150
#	7817
#	31847
#	53200
#	73205
#	102888
#	118680
#	146715
#	174151
#	214895
#
# Disc length: 3302 seconds
# Revision: 0
# Processed by: cddbd v1.5.2PL0 Copyright (c) Steve Scherf et al.
# Submitted via: dBpowerAMP V12.0
#
DISCID=860ce40a
DTITLE=God Forbid - Earthsblood
DYEAR=2009
DGENRE=Metal
TTITLE0=The Discovery
TTITLE1=The Rain
TTITLE2=Empire of the Gun
TTITLE3=War of Attrition
TTITLE4=The New Clear
TTITLE5=Shallow
TTITLE6=Walk Alone
TTITLE7=Bat the Angels
TTITLE8=Earthsblood
TTITLE9=Gaia (The Vultures)
EXTD=
EXTT0=
EXTT1=
EXTT2=
EXTT3=
EXTT4=
EXTT5=
EXTT6=
EXTT7=
EXTT8=
EXTT9=
PLAYORDER=
